<?xml version="1.0" standalone="no"?>
<!DOCTYPE svg PUBLIC "-//W3C//DTD SVG 20010904//EN"
 "http://www.w3.org/TR/2001/REC-SVG-20010904/DTD/svg10.dtd">
<svg version="1.0" xmlns="http://www.w3.org/2000/svg"
 width="260.000000pt" height="260.000000pt" viewBox="0 0 260.000000 260.000000"
 preserveAspectRatio="xMidYMid meet">
<metadata>
Created by potrace 1.11, written by Peter Selinger 2001-2013
</metadata>
<g transform="translate(0.000000,260.000000) scale(0.100000,-0.100000)"
fill="#000000" stroke="none">
<path d="M0 1300 l0 -1300 1300 0 1300 0 0 1300 0 1300 -1300 0 -1300 0 0
-1300z m1141 119 c101 -243 186 -446 187 -450 2 -5 -28 -9 -66 -9 l-70 0 -55
138 -54 137 -184 3 -184 2 -50 -140 -50 -140 -66 0 -66 0 176 450 176 450 61
0 61 0 184 -441z m750 425 c108 -32 182 -146 160 -246 -12 -51 -46 -103 -83
-126 l-31 -20 34 -17 c146 -74 172 -273 51 -394 -70 -69 -91 -74 -364 -78
l-238 -5 0 451 0 451 208 0 c162 0 221 -4 263 -16z"/>
<path d="M881 1693 c-7 -26 -37 -113 -67 -192 -30 -79 -52 -146 -50 -148 2 -2
64 -2 138 -1 l135 3 -44 115 c-25 63 -58 150 -73 193 l-27 79 -12 -49z"/>
<path d="M1540 1620 l0 -130 126 0 c151 0 205 12 239 52 37 43 35 116 -3 159
-35 39 -79 48 -239 49 l-123 0 0 -130z"/>
<path d="M1540 1225 l0 -157 163 4 c181 4 212 12 247 71 26 42 26 121 1 163
-34 55 -77 67 -253 72 l-158 4 0 -157z"/>
</g>
</svg>
